<?xml version="1.0" encoding="utf-8"?>
<!-- Generator: Adobe Illustrator 25.4.1, SVG Export Plug-In . SVG Version: 6.00 Build 0)  -->
<svg version="1.1" id="Layer_1" xmlns="http://www.w3.org/2000/svg" xmlns:xlink="http://www.w3.org/1999/xlink" x="0px" y="0px"
	 viewBox="0 0 586.67 586.67" style="enable-background:new 0 0 586.67 586.67;" xml:space="preserve">
<style type="text/css">
	.st0{fill:#FFFFFF;}
</style>
<path d="M586.67,120.76c0,114.89,0,229.78,0,344.67c-0.2,1.19-0.44,2.37-0.59,3.56c-0.74,5.72-1.1,11.51-2.26,17.14
	c-5.49,26.64-18.31,49.25-38.43,67.55c-20.05,18.23-43.62,28.91-70.6,31.92c-2.96,0.33-5.92,0.72-8.88,1.08
	c-114.89,0-229.78,0-344.67,0c-1.19-0.2-2.37-0.44-3.56-0.59c-5.72-0.74-11.51-1.09-17.14-2.25C73.9,578.33,51.3,565.51,33,545.39
	c-18.23-20.05-28.91-43.62-31.92-70.6c-0.33-2.96-0.72-5.92-1.08-8.88c0-114.89,0-229.78,0-344.67c0.2-1.19,0.44-2.37,0.59-3.56
	c0.77-5.79,1.16-11.66,2.33-17.37C8.39,73.74,21.24,51.24,41.29,33C61.33,14.76,84.9,4.1,111.88,1.08c2.96-0.33,5.92-0.72,8.88-1.08
	c114.89,0,229.78,0,344.67,0c1.19,0.2,2.37,0.44,3.56,0.59c5.72,0.74,11.51,1.1,17.14,2.26c26.64,5.49,49.24,18.31,67.55,38.43
	c18.23,20.05,28.91,43.62,31.92,70.6C585.92,114.84,586.31,117.8,586.67,120.76z M265.88,284.25c0.14,0.04,0.27,0.08,0.41,0.12
	c0,0.87,0,1.74,0,2.6c0,31.53,0.02,63.06-0.04,94.6c0,2.21,0.58,2.92,2.86,2.9c11.41-0.11,22.81-0.05,34.22-0.05
	c3.76,0,3.77,0,3.77-3.69c0-32.35,0-64.69,0-97.04c0-23.79-0.03-47.58,0.05-71.37c0.01-2.48-0.76-3.21-3.21-3.19
	c-11.65,0.11-23.3,0.08-34.95,0.02c-1.84-0.01-2.9,0.59-3.89,2.21c-12.99,21.25-26.05,42.45-39.11,63.66
	c-2.29,3.72-4.6,7.43-7.12,11.49c-0.68-1.06-1.16-1.78-1.61-2.51c-14.84-24.13-29.69-48.26-44.5-72.4c-0.9-1.47-1.78-2.47-3.77-2.45
	c-11.9,0.09-23.79,0.07-35.69,0.02c-1.85-0.01-2.54,0.51-2.54,2.5c0.05,56.79,0.05,113.58,0,170.37c0,2,0.68,2.45,2.53,2.44
	c11.9-0.07,23.79-0.03,35.69-0.04c0.7,0,1.4-0.12,2.37-0.21c0-33.49,0-66.8,0-100.73c2.06,3.33,3.78,6.09,5.47,8.86
	c12.81,20.89,25.62,41.77,38.4,62.68c0.84,1.38,1.79,1.94,3.47,2.1c2.56,0.24,3.37-1.4,4.39-3.07
	c11.09-18.11,22.19-36.21,33.3-54.32C259.52,294.57,262.7,289.41,265.88,284.25z M417.83,373.08c0,3.48,0.09,6.24-0.03,9
	c-0.08,1.8,0.49,2.39,2.34,2.38c11.16-0.07,22.32-0.08,33.48,0c1.89,0.01,2.31-0.67,2.3-2.42c-0.04-40.16-0.04-80.31,0.01-120.47
	c0-1.9-0.56-2.57-2.48-2.56c-11.08,0.06-22.15,0.05-33.23,0.01c-1.75-0.01-2.5,0.51-2.41,2.38c0.13,2.85,0.03,5.71,0.03,8.76
	c-2.09-1.81-3.77-3.47-5.66-4.88c-11.85-8.84-25.38-11.03-39.6-9.03c-15.34,2.15-27.76,9.82-37.39,21.9
	c-17.28,21.65-19.76,53.6-6.15,78.1c13.54,24.39,38.73,35.96,65.78,30.08C403.59,384.41,411.2,380.2,417.83,373.08z"/>
<path class="st0" d="M265.88,284.25c-3.17,5.16-6.35,10.31-9.52,15.47c-11.1,18.1-22.21,36.21-33.3,54.32
	c-1.02,1.67-1.82,3.31-4.39,3.07c-1.68-0.16-2.63-0.71-3.47-2.1c-12.78-20.91-25.59-41.79-38.4-62.68c-1.7-2.77-3.41-5.53-5.47-8.86
	c0,33.93,0,67.24,0,100.73c-0.96,0.09-1.66,0.21-2.37,0.21c-11.9,0.01-23.79-0.02-35.69,0.04c-1.85,0.01-2.53-0.43-2.53-2.44
	c0.05-56.79,0.05-113.58,0-170.37c0-1.99,0.69-2.5,2.54-2.5c11.9,0.05,23.79,0.07,35.69-0.02c1.99-0.02,2.86,0.98,3.77,2.45
	c14.81,24.15,29.66,48.27,44.5,72.4c0.45,0.73,0.93,1.45,1.61,2.51c2.51-4.06,4.82-7.76,7.12-11.49
	c13.05-21.21,26.12-42.41,39.11-63.66c0.99-1.62,2.05-2.22,3.89-2.21c11.65,0.06,23.3,0.09,34.95-0.02
	c2.45-0.02,3.22,0.71,3.21,3.19c-0.08,23.79-0.05,47.58-0.05,71.37c0,32.35,0,64.69,0,97.04c0,3.68-0.01,3.69-3.77,3.69
	c-11.41,0-22.81-0.06-34.22,0.05c-2.28,0.02-2.86-0.69-2.86-2.9c0.06-31.53,0.04-63.06,0.04-94.6c0-0.87,0-1.74,0-2.6
	C266.15,284.33,266.01,284.29,265.88,284.25z"/>
<path class="st0" d="M417.83,373.08c-6.63,7.12-14.24,11.33-23.02,13.24c-27.05,5.88-52.24-5.69-65.78-30.08
	c-13.6-24.5-11.12-56.45,6.15-78.1c9.64-12.08,22.05-19.74,37.39-21.9c14.22-2,27.74,0.2,39.6,9.03c1.88,1.4,3.57,3.07,5.66,4.88
	c0-3.05,0.1-5.91-0.03-8.76c-0.09-1.87,0.66-2.39,2.41-2.38c11.08,0.05,22.15,0.06,33.23-0.01c1.92-0.01,2.48,0.65,2.48,2.56
	c-0.05,40.16-0.05,80.31-0.01,120.47c0,1.75-0.41,2.43-2.3,2.42c-11.16-0.08-22.32-0.08-33.48,0c-1.84,0.01-2.42-0.58-2.34-2.38
	C417.93,379.32,417.83,376.56,417.83,373.08z M388.24,351.86c17.6,0,29.55-12.09,29.59-29.93c0.03-17.94-12.01-30.34-29.5-30.38
	c-17.63-0.04-29.79,12.23-29.8,30.06C358.51,339.8,370.35,351.86,388.24,351.86z"/>
<path d="M388.24,351.86c-17.89,0-29.73-12.06-29.72-30.26c0.01-17.83,12.17-30.09,29.8-30.06c17.49,0.04,29.54,12.44,29.5,30.38
	C417.8,339.77,405.84,351.87,388.24,351.86z"/>
</svg>
