<?xml version="1.0" encoding="utf-8"?>
<!-- Generator: Adobe Illustrator 25.4.1, SVG Export Plug-In . SVG Version: 6.00 Build 0)  -->
<svg version="1.1" id="Layer_1" xmlns="http://www.w3.org/2000/svg" xmlns:xlink="http://www.w3.org/1999/xlink" x="0px" y="0px"
	 viewBox="0 0 16 16" style="enable-background:new 0 0 16 16;" xml:space="preserve">
<style type="text/css">
	.st0{fill:#00FF00;}
</style>
<polygon points="14.5,3 7.7,3 6.9,2.2 6.5,2 1.5,2 1,2.5 1,13.5 1.5,14 14.5,14 15,13.5 15,3.5 "/>
<polygon class="st0" points="14,11.5 14,13 2,13 2,7 6.5,7 6.8,6.8 7.7,6 14,6 14,7.5 "/>
<polygon class="st0" points="14,5 7.5,5 7.1,5.2 6.3,6 2,6 2,3 6.3,3 7.1,3.9 7.5,4 14,4 "/>
</svg>
