<?xml version="1.0" encoding="utf-8"?>
<!-- Generator: Adobe Illustrator 25.4.1, SVG Export Plug-In . SVG Version: 6.00 Build 0)  -->
<svg version="1.1" id="Layer_1" xmlns="http://www.w3.org/2000/svg" xmlns:xlink="http://www.w3.org/1999/xlink" x="0px" y="0px"
	 viewBox="0 0 16 16" style="enable-background:new 0 0 16 16;" xml:space="preserve">
<style type="text/css">
	.st0{fill:#FFFFFF;}
	.st1{fill:#00FF00;}
</style>
<polygon points="1.5,14 12.5,14 13,13.6 15.6,6.6 15.1,6 14,6 14,3.5 13.5,3 7.7,3 6.8,2.2 6.5,2 1.5,2 1,2.5 1,13.5 "/>
<polygon class="st0" points="2,3 6.3,3 7.2,3.8 7.5,4 13,4 13,6 8.5,6 8.1,6.2 7.3,7 3.5,7 3,7.3 2,10.4 "/>
<polygon class="st1" points="12.1,13 2.2,13 3.9,8 7.5,8 7.8,7.8 8.7,7 14.5,7 "/>
</svg>
