<?xml version="1.0" encoding="utf-8"?>
<!-- Generator: Adobe Illustrator 25.4.1, SVG Export Plug-In . SVG Version: 6.00 Build 0)  -->
<svg version="1.1" id="Layer_1" xmlns="http://www.w3.org/2000/svg" xmlns:xlink="http://www.w3.org/1999/xlink" x="0px" y="0px"
	 viewBox="0 0 586.7 586.7" style="enable-background:new 0 0 586.7 586.7;" xml:space="preserve">
<g>
	<path d="M465,5c0.2,0,0.4,0.1,0.7,0.1c0.9,0.2,1.8,0.3,2.7,0.4c1.9,0.2,3.8,0.4,5.6,0.6c3.9,0.4,7.5,0.8,11.1,1.6
		c25.5,5.3,47.4,17.7,64.9,36.9c17.5,19.2,27.8,42,30.6,67.8c0.2,2.1,0.5,4.2,0.8,6.3c0.1,0.8,0.2,1.6,0.3,2.3V465
		c0,0.2-0.1,0.4-0.1,0.7c-0.2,0.9-0.3,1.8-0.4,2.7c-0.2,1.9-0.4,3.8-0.6,5.6c-0.4,3.9-0.8,7.5-1.6,11.1
		c-5.3,25.6-17.7,47.4-36.9,64.9c-19.2,17.5-42,27.8-67.8,30.7c-2,0.2-4,0.5-6,0.7c-0.9,0.1-1.8,0.2-2.6,0.3H121.7
		c-0.2,0-0.4-0.1-0.7-0.1c-0.9-0.2-1.8-0.3-2.7-0.4c-1.9-0.2-3.8-0.5-5.7-0.7c-3.9-0.4-7.5-0.8-11.1-1.5
		C76,573.7,54.2,561.2,36.7,542C19.2,522.8,8.9,500,6,474.2c-0.2-2-0.5-4-0.7-6c-0.1-0.9-0.2-1.8-0.3-2.6V121.7
		c0-0.2,0.1-0.4,0.1-0.7c0.2-0.9,0.3-1.8,0.4-2.7c0.3-2,0.5-3.9,0.7-5.8c0.4-3.9,0.8-7.6,1.6-11.2C13,75.9,25.4,54.2,44.7,36.7
		C63.8,19.2,86.6,8.9,112.4,6c2-0.2,4-0.5,6-0.7c0.9-0.1,1.8-0.2,2.6-0.3H465 M465.4,0C350.5,0,235.6,0,120.8,0
		c-3,0.4-5.9,0.8-8.9,1.1c-27,3-50.5,13.7-70.6,31.9C21.2,51.2,8.4,73.7,2.9,100.3c-1.2,5.7-1.6,11.6-2.3,17.4
		c-0.2,1.2-0.4,2.4-0.6,3.6C0,236.1,0,351,0,465.9c0.4,3,0.8,5.9,1.1,8.9c3,27,13.7,50.5,31.9,70.6c18.3,20.1,40.9,32.9,67.5,38.4
		c5.6,1.2,11.4,1.5,17.1,2.2c1.2,0.2,2.4,0.4,3.6,0.6c114.9,0,229.8,0,344.7,0c3-0.4,5.9-0.8,8.9-1.1c27-3,50.6-13.7,70.6-31.9
		c20.1-18.3,32.9-40.9,38.4-67.5c1.2-5.6,1.5-11.4,2.3-17.1c0.1-1.2,0.4-2.4,0.6-3.6c0-114.9,0-229.8,0-344.7
		c-0.4-3-0.8-5.9-1.1-8.9c-3-27-13.7-50.5-31.9-70.6c-18.3-20.1-40.9-32.9-67.5-38.4c-5.6-1.2-11.4-1.5-17.1-2.3
		C467.8,0.4,466.6,0.2,465.4,0L465.4,0z"/>
</g>
<path d="M265.9,284.2c-3.2,5.2-6.4,10.3-9.5,15.5c-11.1,18.1-22.2,36.2-33.3,54.3c-1,1.7-1.8,3.3-4.4,3.1c-1.7-0.2-2.6-0.7-3.5-2.1
	c-12.8-20.9-25.6-41.8-38.4-62.7c-1.7-2.8-3.4-5.5-5.5-8.9c0,33.9,0,67.2,0,100.7c-1,0.1-1.7,0.2-2.4,0.2c-11.9,0-23.8,0-35.7,0
	c-1.9,0-2.5-0.4-2.5-2.4c0.1-56.8,0.1-113.6,0-170.4c0-2,0.7-2.5,2.5-2.5c11.9,0.1,23.8,0.1,35.7,0c2,0,2.9,1,3.8,2.4
	c14.8,24.1,29.7,48.3,44.5,72.4c0.4,0.7,0.9,1.5,1.6,2.5c2.5-4.1,4.8-7.8,7.1-11.5c13.1-21.2,26.1-42.4,39.1-63.7
	c1-1.6,2-2.2,3.9-2.2c11.6,0.1,23.3,0.1,35,0c2.5,0,3.2,0.7,3.2,3.2c-0.1,23.8,0,47.6,0,71.4c0,32.4,0,64.7,0,97
	c0,3.7,0,3.7-3.8,3.7c-11.4,0-22.8-0.1-34.2,0c-2.3,0-2.9-0.7-2.9-2.9c0.1-31.5,0-63.1,0-94.6c0-0.9,0-1.7,0-2.6
	C266.1,284.3,266,284.3,265.9,284.2z"/>
<path d="M455.9,261.6c0-1.9-0.6-2.6-2.5-2.6c-11.1,0.1-22.2,0.1-33.2,0c-1.8,0-2.5,0.5-2.4,2.4c0.1,2.8,0,5.7,0,8.8
	c-2.1-1.8-3.8-3.5-5.7-4.9c-11.9-8.8-25.4-11-39.6-9c-15.3,2.2-27.8,9.8-37.4,21.9c-17.3,21.6-19.8,53.6-6.1,78.1
	c13.5,24.4,38.7,36,65.8,30.1c8.8-1.9,16.4-6.1,23-13.2c0,3.5,0.1,6.2,0,9c-0.1,1.8,0.5,2.4,2.3,2.4c11.2-0.1,22.3-0.1,33.5,0
	c1.9,0,2.3-0.7,2.3-2.4C455.9,341.9,455.9,301.7,455.9,261.6z M414.9,335.9c-4.6,9.9-14.2,16-26.7,16c-1.7,0-3.3-0.1-4.9-0.3
	c-6.6-0.9-12.2-3.6-16.4-7.7c-5.4-5.3-8.5-13-8.5-22.3c0-17.8,12.2-30.1,29.8-30.1c11.5,0,20.6,5.4,25.5,14.1c2.6,4.6,4,10.1,4,16.3
	C417.8,327.1,416.8,331.8,414.9,335.9z"/>
</svg>
